<?xml version="1.0" encoding="UTF-8" standalone="no"?><!DOCTYPE svg PUBLIC "-//W3C//DTD SVG 1.1//EN" "http://www.w3.org/Graphics/SVG/1.1/DTD/svg11.dtd"><svg width="100%" height="100%" viewBox="0 0 267 267" version="1.1" xmlns="http://www.w3.org/2000/svg" xmlns:xlink="http://www.w3.org/1999/xlink" xml:space="preserve" xmlns:serif="http://www.serif.com/" style="fill-rule:evenodd;clip-rule:evenodd;stroke-linejoin:round;stroke-miterlimit:2;"><path d="M145.747,5.579l4.089,19.907c7.914,1.211 15.67,3.289 23.129,6.197l13.495,-15.195c7.551,3.433 14.752,7.591 21.501,12.414l-6.412,19.284c6.248,5.006 11.926,10.684 16.931,16.932l19.285,-6.413c4.823,6.75 8.98,13.95 12.414,21.502l-15.196,13.495c2.908,7.459 4.987,15.215 6.198,23.128l19.907,4.089c0.802,8.257 0.802,16.572 -0,24.828l-19.907,4.089c-1.211,7.914 -3.29,15.67 -6.198,23.129l15.196,13.495c-3.434,7.551 -7.591,14.752 -12.414,21.501l-19.285,-6.412c-5.005,6.248 -10.683,11.926 -16.931,16.931l6.412,19.285c-6.749,4.823 -13.95,8.98 -21.501,12.414l-13.495,-15.196c-7.459,2.908 -15.215,4.987 -23.129,6.198l-4.089,19.907c-8.256,0.802 -16.571,0.802 -24.828,-0l-4.089,-19.907c-7.913,-1.211 -15.669,-3.29 -23.128,-6.198l-13.495,15.196c-7.552,-3.434 -14.752,-7.591 -21.502,-12.414l6.413,-19.285c-6.248,-5.005 -11.926,-10.683 -16.932,-16.931l-19.284,6.412c-4.823,-6.749 -8.981,-13.95 -12.414,-21.501l15.195,-13.495c-2.908,-7.459 -4.986,-15.215 -6.197,-23.129l-19.907,-4.089c-0.802,-8.256 -0.802,-16.571 0,-24.828l19.907,-4.089c1.211,-7.913 3.289,-15.669 6.197,-23.128l-15.195,-13.495c3.433,-7.552 7.591,-14.752 12.414,-21.502l19.284,6.413c5.006,-6.248 10.684,-11.926 16.932,-16.932l-6.413,-19.284c6.75,-4.823 13.95,-8.981 21.502,-12.414l13.495,15.195c7.459,-2.908 15.215,-4.986 23.128,-6.197l4.089,-19.907c8.257,-0.802 16.572,-0.802 24.828,0Zm-12.414,102.083c14.169,0 25.672,11.503 25.672,25.671c-0,14.169 -11.503,25.672 -25.672,25.672c-14.168,-0 -25.671,-11.503 -25.671,-25.672c0,-14.168 11.503,-25.671 25.671,-25.671Z" style="fill:url(#_Linear1);"/><g><g transform="matrix(4.16667,0,0,4.16667,-116.773,-15.0545)"><text x="46.821px" y="21.246px" style="font-family:'ArialMT', 'Arial', sans-serif;font-size:12px;">Build</text><text x="43.487px" y="33.638px" style="font-family:'ArialMT', 'Arial', sans-serif;font-size:12px;">a LLM</text><text x="46.165px" y="46.031px" style="font-family:'ArialMT', 'Arial', sans-serif;font-size:12px;">From</text><g transform="matrix(12,0,0,12,80.5041,58.4236)"></g><text x="39.822px" y="58.424px" style="font-family:'ArialMT', 'Arial', sans-serif;font-size:12px;">Scratch</text></g></g><defs><linearGradient id="_Linear1" x1="0" y1="0" x2="1" y2="0" gradientUnits="userSpaceOnUse" gradientTransform="matrix(256.712,0,0,256.712,4.97736,133.333)"><stop offset="0" style="stop-color:#6bff6c;stop-opacity:1"/><stop offset="0.19" style="stop-color:#72498d;stop-opacity:1"/><stop offset="0.34" style="stop-color:#75009a;stop-opacity:1"/><stop offset="0.65" style="stop-color:#2f5dff;stop-opacity:1"/><stop offset="1" style="stop-color:#eeff34;stop-opacity:1"/></linearGradient></defs></svg>